<?xml version="1.0" encoding="utf-8"?>
<!-- Generator: Adobe Illustrator 22.1.0, SVG Export Plug-In . SVG Version: 6.00 Build 0)  -->
<svg version="1.1" id="레이어_1" xmlns="http://www.w3.org/2000/svg" xmlns:xlink="http://www.w3.org/1999/xlink" x="0px"
	 y="0px" viewBox="0 0 1183.3 149.3" style="enable-background:new 0 0 1183.3 149.3;" xml:space="preserve">
<style type="text/css">
	.st0{fill:#040000;}
</style>
<g>
	<path class="st0" d="M152.2,99.7c-2.4,16-10.2,28.2-23.3,36.6C115.9,144.8,98.2,149,76,149c-24.9,0-43.8-6.2-56.7-18.6
		C6.5,118.1,0,99.9,0,75.9c0-24.3,6.7-43.1,20-56.2C33.4,6.5,52.4,0,77.2,0c24.8,0,43.6,6.5,56.4,19.6
		c12.8,13.1,19.2,32.2,19.2,57.4c0,2.6,0,4.5-0.1,5.8c-0.1,1.3-0.2,2.5-0.4,3.6H50.1c0,11.3,2.4,19.7,7.1,25.4
		c4.8,5.7,11.8,8.6,21.2,8.6c6.6,0,12-1.7,16.1-5.2c4.1-3.5,6.8-8.6,8.1-15.6H152.2z M50.7,57.2h52.4c-0.9-9.5-3.4-16.7-7.7-21.6
		c-4.3-4.9-10-7.3-17.2-7.3c-8.2,0-14.5,2.3-18.9,7C54.9,40,52,47.3,50.7,57.2z"/>
	<path class="st0" d="M453.4,74.5c0-23.9,7.4-42.3,22.1-55.3c14.7-13,35.8-19.5,63.1-19.5c27.2,0,48.1,6.5,62.9,19.4
		c14.7,12.9,22.1,31.4,22.1,55.4c0,24-7.4,42.4-22.1,55.4c-14.7,13-35.7,19.4-62.9,19.4c-27.4,0-48.4-6.5-63.1-19.5
		C460.7,116.8,453.4,98.4,453.4,74.5z M510.8,74.2c0,16,2.2,27.6,6.5,34.7c4.3,7.1,11.3,10.6,21,10.6c9.7,0,16.7-3.5,21.1-10.6
		c4.4-7,6.5-18.6,6.5-34.8c0-16.1-2.2-27.8-6.5-34.9c-4.4-7.1-11.4-10.7-21.1-10.7c-9.6,0-16.6,3.6-21,10.7
		C513,46.5,510.8,58.1,510.8,74.2z"/>
	<path class="st0" d="M765.1,102.2c-2.9,10.8-9.5,20.9-19.9,30.3c-10.3,9.4-24.7,14.1-43,14.1c-20.9,0-37.4-6.9-49.5-20.8
		C640.6,112,634.5,95.1,634.5,75c0-20.2,6.1-37.1,18.2-50.8c12.1-13.7,28.7-20.5,49.5-20.5c18.3,0,32.9,5.1,43.8,15.2
		c10.9,10.1,17.2,20.1,19.1,30h-19.9c-1.3-6.1-5.3-12.5-12.1-19.3c-6.8-6.8-17.1-10.2-30.9-10.2c-14.3,0-25.9,5.2-34.7,15.7
		c-8.8,10.5-13.2,23.8-13.2,40c0,16.4,4.4,29.8,13.2,40.2c8.8,10.5,20.4,15.7,34.7,15.7c11.3,0,20.6-2.8,28-8.5
		c7.4-5.7,12.3-12.5,14.7-20.5L765.1,102.2z"/>
	<path class="st0" d="M890,141.9c-1.1-1.9-2-4.8-2.9-8.7c-0.8-3.9-1.3-8-1.5-12.4c-5.6,5.9-13.4,11.5-23.3,16.7
		c-9.9,5.2-20.5,8.1-32,8.6c-14.3,0.9-26.6-1.5-36.9-7.2c-10.3-5.7-16-14.2-17.3-25.7c-1.3-11.7,1.4-20.9,7.9-27.7
		c6.5-6.8,14.8-11.6,24.8-14.4c8-2.4,16.9-4,26.7-4.6c9.8-0.6,18.9-1.6,27.5-3c4.5-0.9,9.4-2.3,14.7-4.4c5.3-2.1,7.9-6.1,7.9-12
		c0-7.1-3.4-13.7-10.1-19.6c-6.7-5.9-17.1-8.9-31-8.9c-13.2,0-23.6,2.7-31.2,8c-7.5,5.3-11.1,12.2-10.8,20.8h-17.9
		c-1.3-13.2,4.1-23.9,16.2-32C813,7.2,827.5,3.2,844.6,3.2C860.9,3.2,875,7,887,14.8c12,7.7,17.9,18.7,17.9,32.8v72.6
		c0,5.9,0.6,10.9,1.8,15c1.2,4.1,1.8,6.3,2,6.7H890z M885.7,68.7c-2.2,1.6-4.8,3-7.8,4.2c-3,1.2-5.9,2.1-8.8,2.6
		c-5.8,1.2-13.9,2.3-24.2,3.4c-10.3,1-17.7,2.1-22,3.1c-9.4,2.5-16.5,6-21.2,10.7c-4.7,4.7-6.9,10.5-6.5,17.3
		c0.5,8,4.5,13.8,11.8,17.2c7.4,3.5,16,4.9,26,4.2c13.2-1,25.3-5.4,36.3-13.2c11-7.7,16.5-15.7,16.5-23.9V68.7z"/>
	<path class="st0" d="M1029.6,85.1c6.1,5,8.7,12.1,7.8,21.3c-1.1,11-6.7,20.4-16.9,28.3c-10.2,7.9-23.6,12-40.3,12.1
		c-24.1,0.3-40.6-5.1-49.5-16.5c-8.9-11.3-13.3-21.4-13.3-30.3h18.5c0.2,9.8,4.6,17.3,13.2,22.7c8.6,5.4,18.7,8.1,30.3,8.1
		c9.6,0,18.2-1.9,25.9-5.6c7.6-3.7,12.1-9.4,13.3-16.9c0.9-6.1-0.9-10.9-5.3-14.5c-4.4-3.6-9.9-6.7-16.2-9.3
		c-6.9-2.8-14.5-4.9-22.7-6.4c-8.3-1.5-15.4-3.2-21.4-5.1c-7.8-2.6-14.7-6.5-20.8-11.8c-6.1-5.2-8.9-12.3-8.6-21.2
		c0.5-9.6,5.4-18.3,14.6-26.3c9.2-7.9,22.5-11.9,39.9-11.9c19,0,33.1,5,42.2,14.9c9.1,9.9,13.3,19.3,12.8,28h-18.2
		c0-6.1-2.9-12.1-8.8-18c-5.9-5.9-15.5-8.9-28.7-8.9c-11.1,0-19.6,2-25.7,6c-6.1,4-9.3,9.3-9.7,15.9c-0.4,7,2.5,12,8.6,15
		c6.1,3.1,11.6,5.4,16.7,6.9c6.4,1.7,13.6,3.3,21.8,4.7c8.2,1.4,15.3,3.6,21.5,6.5C1017.2,76.2,1023.6,80.1,1029.6,85.1z"/>
	<path class="st0" d="M1163.1,141.9c-1.1-1.9-2-4.8-2.9-8.7c-0.8-3.9-1.3-8-1.5-12.4c-5.6,5.9-13.4,11.5-23.3,16.7
		c-9.9,5.2-20.5,8.1-32,8.6c-14.3,0.9-26.6-1.5-36.9-7.2c-10.3-5.7-16-14.2-17.3-25.7c-1.3-11.7,1.4-20.9,7.9-27.7
		c6.5-6.8,14.8-11.6,24.8-14.4c8-2.4,16.9-4,26.7-4.6c9.8-0.6,19-1.6,27.5-3c4.5-0.9,9.4-2.3,14.7-4.4c5.3-2.1,7.9-6.1,7.9-12
		c0-7.1-3.4-13.7-10.1-19.6c-6.7-5.9-17-8.9-31-8.9c-13.2,0-23.6,2.7-31.2,8c-7.5,5.3-11.1,12.2-10.7,20.8h-18
		c-1.3-13.2,4.1-23.9,16.2-32c12.1-8.1,26.6-12.1,43.7-12.1c16.3,0,30.5,3.9,42.5,11.6c12,7.7,18,18.7,18,32.8v72.6
		c0,5.9,0.6,10.9,1.8,15c1.2,4.1,1.9,6.3,2,6.7H1163.1z M1158.8,68.7c-2.2,1.6-4.8,3-7.8,4.2c-3,1.2-6,2.1-8.8,2.6
		c-5.8,1.2-13.9,2.3-24.2,3.4c-10.4,1-17.7,2.1-22.1,3.1c-9.4,2.5-16.5,6-21.2,10.7c-4.7,4.7-6.9,10.5-6.5,17.3
		c0.6,8,4.5,13.8,11.8,17.2c7.3,3.5,16,4.9,26,4.2c13.2-1,25.3-5.4,36.3-13.2c11-7.7,16.5-15.7,16.5-23.9V68.7z"/>
	<path class="st0" d="M323.3,61.9V3.4h-54.4V85c0,9.6-2.2,17-6.5,22.3c-4.3,5.3-10.3,8-18,8c-8.3,0-14.1-2.7-17.4-8.1
		c-3.4-5.4-5-16-5-31.9V3.4h-54.6v91.4c0,17.7,4.7,31.1,14,40.2c9.4,9.1,23.1,13.7,41.1,13.7c10.2,0,19.5-2.1,27.9-6.4
		c8.5-4.3,14.9-10.1,19.3-17.5l0,20.7h53.6v-30.3V61.9z"/>
	<path class="st0" d="M446.3,2.6c-12.3,0-22.4,2.4-30.4,7.3c-8,4.8-14,12.2-18,22.2V3.4h-52.9v30.8v59v52.3h54.6V80.7
		c0-10.2,3.2-18.4,9.7-24.4c6.5-6,15.2-9.1,26-9.1c3.6,0,6.5,0,8.7,0.1c2.2,0.1,4.3,0.2,6.3,0.4V2.6H446.3z"/>
</g>
</svg>
